<svg width="56" height="51" viewBox="0 0 56 51" fill="none" xmlns="http://www.w3.org/2000/svg">
<path d="M33.8334 14.5001H38.3335C38.6429 14.5001 38.9397 14.623 39.1584 14.8418C39.3772 15.0606 39.5002 15.3573 39.5002 15.6667V34.3334C39.5002 34.6428 39.3772 34.9396 39.1584 35.1584C38.9397 35.3772 38.6429 35.5001 38.3335 35.5001H17.6667C17.3572 35.5001 17.0605 35.3772 16.8417 35.1584C16.6229 34.9396 16.5 34.6428 16.5 34.3334V15.6667C16.5 15.3573 16.6229 15.0606 16.8417 14.8418C17.0605 14.623 17.3572 14.5001 17.6667 14.5001H22.1667V13.1667C22.1667 12.6145 22.6145 12.1667 23.1667 12.1667H23.5001C24.0524 12.1667 24.5001 12.6145 24.5001 13.1667V14.5001H31.5001V13.1667C31.5001 12.6145 31.9478 12.1667 32.5001 12.1667H32.8334C33.3857 12.1667 33.8334 12.6145 33.8334 13.1667V14.5001ZM18.5002 21.0001V33.5001H37.5002V21.0001H18.5002ZM21.0001 27.1667C21.0001 26.6144 21.4478 26.1667 22.0001 26.1667H25.8334C26.3857 26.1667 26.8334 26.6145 26.8334 27.1667V28.5001C26.8334 29.0524 26.3857 29.5001 25.8334 29.5001H22C21.4477 29.5001 21 29.0524 21 28.5001L21.0001 27.1667Z" fill="black"/>
</svg>
